HIERARCHY
ROOT Hips
{
	OFFSET 0.000000 71.427986 0.000000
	CHANNELS 6 Xposition Yposition Zposition Xrotation Yrotation Zrotation
	JOINT Pelvis
	{
		OFFSET 0.000000 0.000000 0.000000
		CHANNELS 3 Xrotation Yrotation Zrotation
		JOINT LeftUpLeg
		{
			OFFSET 6.797100 -2.508499 -1.318700
			CHANNELS 3 Xrotation Yrotation Zrotation
			JOINT LeftLeg
			{
				OFFSET 0.069008 -29.241863 0.690200
				CHANNELS 3 Xrotation Yrotation Zrotation
				JOINT LeftFoot
				{
					OFFSET -0.069008 -29.568123 -0.266800
					CHANNELS 3 Xrotation Yrotation Zrotation
					JOINT LeftToeBase
					{
						OFFSET 3.145500 -8.631000 16.059900
						CHANNELS 3 Xrotation Yrotation Zrotation
						End Site
						{
							OFFSET 0.000000 18.501587 0.000000
						}
					}
				}
			}
			JOINT Left_ShortSleeve
			{
				OFFSET 0.265923 -10.480953 1.153800
				CHANNELS 3 Xrotation Yrotation Zrotation
				End Site
				{
					OFFSET 1.725763 19.823879 0.000000
				}
			}
		}
		JOINT RightUpLeg
		{
			OFFSET -6.797100 -2.508499 -1.318700
			CHANNELS 3 Xrotation Yrotation Zrotation
			JOINT RightLeg
			{
				OFFSET -0.082453 -29.241932 0.688000
				CHANNELS 3 Xrotation Yrotation Zrotation
				JOINT RightFoot
				{
					OFFSET 0.082453 -29.568058 -0.264600
					CHANNELS 3 Xrotation Yrotation Zrotation
					JOINT RightToeBase
					{
						OFFSET -3.115300 -8.682800 16.113400
						CHANNELS 3 Xrotation Yrotation Zrotation
						End Site
						{
							OFFSET 0.000000 18.567114 0.000000
						}
					}
				}
			}
			JOINT Right_ShortSleeve
			{
				OFFSET -0.265923 -10.480953 1.153800
				CHANNELS 3 Xrotation Yrotation Zrotation
				End Site
				{
					OFFSET -1.725766 19.823910 0.000000
				}
			}
		}
	}
	JOINT Spine
	{
		OFFSET 0.000000 13.368103 0.470500
		CHANNELS 3 Xrotation Yrotation Zrotation
		JOINT Spine1
		{
			OFFSET 0.147000 13.837402 0.538800
			CHANNELS 3 Xrotation Yrotation Zrotation
			JOINT Spine2
			{
				OFFSET 0.168000 16.242897 -1.435500
				CHANNELS 3 Xrotation Yrotation Zrotation
				JOINT Neck
				{
					OFFSET 0.217200 18.631500 -1.679100
					CHANNELS 3 Xrotation Yrotation Zrotation
					JOINT Head
					{
						OFFSET 0.000000 6.599396 1.385900
						CHANNELS 3 Xrotation Yrotation Zrotation
						JOINT Hat
						{
							OFFSET -0.532200 27.220596 -10.096100
							CHANNELS 3 Xrotation Yrotation Zrotation
							End Site
							{
								OFFSET 0.000000 22.029861 0.000000
							}
						}
						JOINT HairD
						{
							OFFSET -10.777400 17.437393 -1.325900
							CHANNELS 3 Xrotation Yrotation Zrotation
							JOINT HairD1
							{
								OFFSET -3.290299 -11.051193 1.062200
								CHANNELS 3 Xrotation Yrotation Zrotation
								End Site
								{
									OFFSET 0.000000 11.579437 0.000000
								}
							}
						}
						JOINT HairB
						{
							OFFSET -10.777400 17.437393 1.467900
							CHANNELS 3 Xrotation Yrotation Zrotation
							JOINT HairB1
							{
								OFFSET -1.561200 -12.956299 3.590200
								CHANNELS 3 Xrotation Yrotation Zrotation
								End Site
								{
									OFFSET 0.000000 13.534866 0.000000
								}
							}
						}
						JOINT HairA
						{
							OFFSET 9.713100 17.437393 1.467900
							CHANNELS 3 Xrotation Yrotation Zrotation
							JOINT HairA1
							{
								OFFSET 1.561200 -12.956299 3.590200
								CHANNELS 3 Xrotation Yrotation Zrotation
								End Site
								{
									OFFSET 0.000000 13.534866 0.000000
								}
							}
						}
						JOINT HairC
						{
							OFFSET 9.713100 17.437393 -1.325900
							CHANNELS 3 Xrotation Yrotation Zrotation
							JOINT HairC1
							{
								OFFSET 3.290300 -11.051193 1.062200
								CHANNELS 3 Xrotation Yrotation Zrotation
								End Site
								{
									OFFSET 0.000000 11.579437 0.000000
								}
							}
						}
					}
				}
				JOINT LeftShoulder
				{
					OFFSET 5.101800 15.108002 -2.763700
					CHANNELS 3 Xrotation Yrotation Zrotation
					JOINT LeftArm
					{
						OFFSET 9.825497 2.506317 -1.597400
						CHANNELS 3 Xrotation Yrotation Zrotation
						JOINT LeftForeArm
						{
							OFFSET 21.966244 0.000000 0.000000
							CHANNELS 3 Xrotation Yrotation Zrotation
							JOINT LeftHand
							{
								OFFSET 33.879036 0.000000 0.000000
								CHANNELS 3 Xrotation Yrotation Zrotation
								JOINT LeftHandThumb1
								{
									OFFSET 6.715286 -2.359680 3.363841
									CHANNELS 3 Xrotation Yrotation Zrotation
									JOINT LeftHandThumb2
									{
										OFFSET 2.507072 -1.447464 1.447461
										CHANNELS 3 Xrotation Yrotation Zrotation
										JOINT LeftHandThumb3
										{
											OFFSET 2.898338 -1.673355 1.673357
											CHANNELS 3 Xrotation Yrotation Zrotation
											End Site
											{
												OFFSET -0.295959 3.727692 -0.131651
											}
										}
									}
								}
								JOINT LeftHandIndex1
								{
									OFFSET 14.190811 -0.254547 3.840278
									CHANNELS 3 Xrotation Yrotation Zrotation
									JOINT LeftHandIndex2
									{
										OFFSET 3.551727 0.000000 -0.000000
										CHANNELS 3 Xrotation Yrotation Zrotation
										JOINT LeftHandIndex3
										{
											OFFSET 2.894196 0.000000 0.000000
											CHANNELS 3 Xrotation Yrotation Zrotation
											End Site
											{
												OFFSET -1.000603 2.690872 0.366626
											}
										}
									}
								}
								JOINT LeftHandMiddle1
								{
									OFFSET 13.776489 0.000000 0.000000
									CHANNELS 3 Xrotation Yrotation Zrotation
									JOINT LeftHandMiddle2
									{
										OFFSET 3.438232 0.000000 0.000000
										CHANNELS 3 Xrotation Yrotation Zrotation
										JOINT LeftHandMiddle3
										{
											OFFSET 3.691551 0.000000 0.000000
											CHANNELS 3 Xrotation Yrotation Zrotation
											End Site
											{
												OFFSET -1.082298 3.499527 0.457670
											}
										}
									}
								}
								JOINT LeftHandRing1
								{
									OFFSET 13.966164 -0.268127 -3.067488
									CHANNELS 3 Xrotation Yrotation Zrotation
									JOINT LeftHandRing2
									{
										OFFSET 3.162567 0.000000 0.000000
										CHANNELS 3 Xrotation Yrotation Zrotation
										JOINT LeftHandRing3
										{
											OFFSET 3.324348 0.000000 0.000000
											CHANNELS 3 Xrotation Yrotation Zrotation
											End Site
											{
												OFFSET -0.861900 3.184998 0.405154
											}
										}
									}
								}
								JOINT LeftHandPinky1
								{
									OFFSET 13.131393 -0.168503 -5.746925
									CHANNELS 3 Xrotation Yrotation Zrotation
									JOINT LeftHandPinky2
									{
										OFFSET 2.849182 0.000000 0.000000
										CHANNELS 3 Xrotation Yrotation Zrotation
										JOINT LeftHandPinky3
										{
											OFFSET 2.805038 0.000000 0.000000
											CHANNELS 3 Xrotation Yrotation Zrotation
											End Site
											{
												OFFSET -0.882500 2.642609 0.325652
											}
										}
									}
								}
							}
							JOINT Left_Sleeve
							{
								OFFSET 6.592125 -0.646545 0.805568
								CHANNELS 3 Xrotation Yrotation Zrotation
								End Site
								{
									OFFSET -0.000179 20.275787 -0.000000
								}
							}
						}
					}
				}
				JOINT RightShoulder
				{
					OFFSET -5.731700 15.108002 -2.763700
					CHANNELS 3 Xrotation Yrotation Zrotation
					JOINT RightArm
					{
						OFFSET -9.825497 2.506317 -1.597400
						CHANNELS 3 Xrotation Yrotation Zrotation
						JOINT RightForeArm
						{
							OFFSET -21.966242 0.000000 0.000000
							CHANNELS 3 Xrotation Yrotation Zrotation
							JOINT RightHand
							{
								OFFSET -33.879032 0.000000 0.000000
								CHANNELS 3 Xrotation Yrotation Zrotation
								JOINT RightHandThumb1
								{
									OFFSET -6.715286 -2.359680 3.363841
									CHANNELS 3 Xrotation Yrotation Zrotation
									JOINT RightHandThumb2
									{
										OFFSET -2.507072 -1.447464 1.447461
										CHANNELS 3 Xrotation Yrotation Zrotation
										JOINT RightHandThumb3
										{
											OFFSET -2.898338 -1.673355 1.673357
											CHANNELS 3 Xrotation Yrotation Zrotation
											End Site
											{
												OFFSET 0.295959 3.727692 -0.131651
											}
										}
									}
								}
								JOINT RightHandIndex1
								{
									OFFSET -14.190811 -0.254547 3.840278
									CHANNELS 3 Xrotation Yrotation Zrotation
									JOINT RightHandIndex2
									{
										OFFSET -3.551727 0.000000 -0.000000
										CHANNELS 3 Xrotation Yrotation Zrotation
										JOINT RightHandIndex3
										{
											OFFSET -2.894196 0.000000 0.000000
											CHANNELS 3 Xrotation Yrotation Zrotation
											End Site
											{
												OFFSET 1.000603 2.690872 0.366626
											}
										}
									}
								}
								JOINT RightHandMiddle1
								{
									OFFSET -13.776489 0.000000 0.000000
									CHANNELS 3 Xrotation Yrotation Zrotation
									JOINT RightHandMiddle2
									{
										OFFSET -3.438232 0.000000 0.000000
										CHANNELS 3 Xrotation Yrotation Zrotation
										JOINT RightHandMiddle3
										{
											OFFSET -3.691551 0.000000 0.000000
											CHANNELS 3 Xrotation Yrotation Zrotation
											End Site
											{
												OFFSET 1.082298 3.499527 0.457670
											}
										}
									}
								}
								JOINT RightHandRing1
								{
									OFFSET -13.966164 -0.268127 -3.067488
									CHANNELS 3 Xrotation Yrotation Zrotation
									JOINT RightHandRing2
									{
										OFFSET -3.162567 0.000000 0.000000
										CHANNELS 3 Xrotation Yrotation Zrotation
										JOINT RightHandRing3
										{
											OFFSET -3.324348 0.000000 0.000000
											CHANNELS 3 Xrotation Yrotation Zrotation
											End Site
											{
												OFFSET 0.861900 3.184998 0.405154
											}
										}
									}
								}
								JOINT RightHandPinky1
								{
									OFFSET -13.131393 -0.168503 -5.746925
									CHANNELS 3 Xrotation Yrotation Zrotation
									JOINT RightHandPinky2
									{
										OFFSET -2.849182 0.000000 0.000000
										CHANNELS 3 Xrotation Yrotation Zrotation
										JOINT RightHandPinky3
										{
											OFFSET -2.805038 0.000000 0.000000
											CHANNELS 3 Xrotation Yrotation Zrotation
											End Site
											{
												OFFSET 0.882500 2.642609 0.325652
											}
										}
									}
								}
							}
							JOINT Right_Sleeve
							{
								OFFSET -6.592125 -0.646545 0.805568
								CHANNELS 3 Xrotation Yrotation Zrotation
								End Site
								{
									OFFSET 0.000179 20.275787 -0.000000
								}
							}
						}
					}
				}
				JOINT Bind_Right_JacketString
				{
					OFFSET -3.534800 11.969597 7.200700
					CHANNELS 3 Xrotation Yrotation Zrotation
					JOINT Bind_Right_JacketString1
					{
						OFFSET -0.319900 -6.102600 2.794100
						CHANNELS 3 Xrotation Yrotation Zrotation
						End Site
						{
							OFFSET 0.000000 6.719452 0.000000
						}
					}
				}
				JOINT Bind_Left_JacketString
				{
					OFFSET 2.904800 11.969597 7.200700
					CHANNELS 3 Xrotation Yrotation Zrotation
					JOINT Bind_Left_JacketString1
					{
						OFFSET 0.364800 -5.904503 3.186800
						CHANNELS 3 Xrotation Yrotation Zrotation
						End Site
						{
							OFFSET 0.000000 6.719513 0.000000
						}
					}
				}
				JOINT HairE
				{
					OFFSET 5.915200 17.612701 -11.592200
					CHANNELS 3 Xrotation Yrotation Zrotation
					JOINT HairE1
					{
						OFFSET 0.289200 -7.171898 -1.284500
						CHANNELS 3 Xrotation Yrotation Zrotation
						End Site
						{
							OFFSET 0.000000 7.291756 0.000000
						}
					}
				}
				JOINT HairF
				{
					OFFSET -0.864800 17.612701 -11.592200
					CHANNELS 3 Xrotation Yrotation Zrotation
					JOINT HairF1
					{
						OFFSET 0.000000 -14.087097 -2.127501
						CHANNELS 3 Xrotation Yrotation Zrotation
						End Site
						{
							OFFSET 0.000000 14.246841 0.000000
						}
					}
				}
				JOINT HairG
				{
					OFFSET -8.087700 17.612701 -11.592200
					CHANNELS 3 Xrotation Yrotation Zrotation
					JOINT HairG1
					{
						OFFSET -0.293600 -6.081398 -0.910100
						CHANNELS 3 Xrotation Yrotation Zrotation
						End Site
						{
							OFFSET 0.000000 6.156120 0.000000
						}
					}
				}
			}
		}
	}
	JOINT Pouch
	{
		OFFSET 0.000000 4.394501 10.847300
		CHANNELS 3 Xrotation Yrotation Zrotation
		End Site
		{
			OFFSET 0.000000 21.880577 0.000000
		}
	}
	JOINT Bag
	{
		OFFSET -13.229000 4.813004 -0.593300
		CHANNELS 3 Xrotation Yrotation Zrotation
		End Site
		{
			OFFSET 0.000000 21.880577 0.000000
		}
	}
	JOINT OccupyGuyFacialAnim_Joint
	{
		OFFSET 1.000000 -70.206398 -1.655000
		CHANNELS 3 Xrotation Yrotation Zrotation
		End Site
		{
			OFFSET 0.000000 21.880577 0.000000
		}
	}
}
MOTION
Frames: 4
Frame Time: 0.033333
1.367802 70.096985 -3.941564 -4.215010 -2.004953 -1.812178 -0.000000 -0.000000 0.000000 -7.510812 8.162599 4.169597 24.545608 7.538694 2.159897 -12.491941 6.336903 -4.632075 0.000000 0.000000 -0.000000 -0.000001 0.000001 -0.000000 -6.190594 -13.189071 -3.081180 20.774637 1.939233 -1.727422 -10.199436 -2.266793 3.641106 0.000000 0.000000 -0.000000 -0.000001 0.000001 -0.000000 -0.079789 -1.226553 2.636203 3.281408 -0.217779 -0.718618 3.278083 -0.236083 -0.726365 14.326236 -0.450815 -0.450623 1.361968 -2.045397 0.772808 0.000002 0.000000 0.000000 0.000002 0.000000 0.000000 0.000002 0.000000 0.000000 0.000002 0.000000 0.000000 0.000000 0.000000 0.000000 0.000002 0.000000 0.000000 0.000000 0.000000 0.000000 0.000002 0.000000 0.000000 0.000002 0.000000 0.000000 1.178548 -1.204261 -6.062406 16.527767 -58.497872 -54.067012 -0.000004 -5.270489 0.000004 -2.270193 -10.887308 -3.743473 10.496808 25.044087 -1.067293 1.207933 -0.209783 -1.051030 0.000002 -0.000000 -0.000001 0.471721 3.300043 -9.778620 0.805926 3.237435 -27.950818 0.000002 0.000000 -0.000002 0.591860 3.666370 -11.044190 0.390877 2.291071 -19.361100 0.000002 0.000001 -0.000001 0.753635 4.088669 -12.660869 0.077975 1.035568 -8.614547 -0.000002 0.000000 -0.000002 1.868590 8.363726 -13.558047 -0.018107 -4.056690 -0.491024 0.000000 -0.000000 0.000003 0.000000 0.000000 -0.000001 4.657622 10.779217 3.980417 18.739415 46.322647 42.476311 0.000150 80.042789 -0.000160 41.167271 -4.996356 -35.912503 2.013223 3.577196 7.254195 1.571746 0.186960 1.723080 0.000000 -0.000001 0.000001 3.086471 7.700580 -26.864743 1.909917 -4.790871 43.450651 0.000002 -0.000000 0.000000 1.060958 6.545822 -9.835593 0.962633 -3.534957 30.457869 0.000003 -0.000001 -0.000001 -0.995616 4.165079 11.911730 0.186449 -1.602564 13.271782 -0.000000 0.000000 0.000001 -1.958152 1.737697 29.305897 -0.000003 -0.000006 -0.000002 -0.000001 0.000001 0.000001 0.000000 -0.000000 -0.000001 0.000000 -0.000000 0.000000 0.000000 0.000000 -0.000000 0.000000 -0.000000 0.000000 0.000000 -0.000000 0.000000 0.000000 -0.000000 0.000000 0.000000 0.000000 -0.000000 0.000000 -0.000000 0.000000 0.000000 -0.000000 0.000000 0.000000 -0.000000 0.000000 0.000000 0.000000 -0.000000 -0.000000 -0.000000 0.000000 -0.000000 -0.000000 0.000000 -0.000000 -0.000000 0.000000 
1.317217 70.029182 -4.032975 -4.181246 -2.295482 -1.832021 -0.000000 -0.000000 0.000000 -7.920843 8.527293 4.382506 25.123811 7.290157 2.087002 -12.713196 6.451217 -4.608995 -0.000000 -0.000000 0.000000 -0.000000 0.000000 -0.000000 -6.680411 -12.853002 -2.963172 21.451085 1.769638 -1.901040 -10.423923 -2.177157 3.675253 0.000000 -0.000002 -0.000000 0.000000 0.000002 -0.000000 -0.142268 -0.789289 2.809124 3.336593 -0.153040 -0.909694 3.333735 -0.172598 -0.914533 14.257272 -0.579670 -0.225648 1.387271 -2.507133 0.943705 -0.000000 0.000001 -0.000000 -0.000000 0.000001 -0.000000 -0.000000 0.000001 -0.000000 -0.000000 0.000001 -0.000000 -0.000000 0.000001 0.000000 -0.000000 0.000001 -0.000000 -0.000000 0.000001 0.000000 -0.000000 0.000001 -0.000000 -0.000000 0.000001 -0.000000 1.190880 -1.338259 -5.745278 16.474213 -58.720700 -53.986789 -0.000002 -5.167845 0.000014 -2.343460 -10.976385 -4.031013 10.641324 25.056779 -1.272222 1.207926 -0.209750 -1.051019 -0.000002 0.000001 -0.000001 0.436126 3.178727 -9.384565 0.957950 3.508526 -30.534514 0.000000 -0.000000 -0.000000 0.552324 3.583308 -10.485152 0.465468 2.493034 -21.148149 -0.000002 -0.000001 -0.000001 0.714482 4.072637 -11.906617 0.092936 1.129814 -9.405484 -0.000002 0.000000 -0.000001 1.767550 8.416541 -12.640318 -0.018094 -4.056669 -0.491025 -0.000001 0.000001 -0.000001 -0.000001 -0.000001 0.000002 5.369627 12.944498 4.112777 19.154704 46.767456 40.079632 0.000249 83.142390 -0.000244 42.722663 -7.570709 -36.898372 1.241529 3.854543 5.690827 1.571731 0.186982 1.723090 0.000001 -0.000003 -0.000001 2.597477 6.449201 -29.092883 1.479328 -4.292433 38.017168 -0.000003 -0.000004 -0.000000 1.086184 5.628825 -12.355369 0.748726 -3.143661 26.786820 0.000001 -0.000000 0.000001 -0.708292 3.947474 9.275836 0.145449 -1.417596 11.716212 0.000001 0.000001 -0.000003 -1.818170 2.062220 26.591202 0.000001 -0.000036 0.000137 -0.000001 -0.000001 -0.000003 0.000001 -0.000001 0.000000 -0.000000 -0.000000 0.000000 0.000000 -0.000000 0.000000 -0.000000 -0.000000 0.000000 -0.000000 -0.000000 0.000000 -0.000000 -0.000000 0.000000 0.000000 -0.000000 0.000000 -0.000000 -0.000000 0.000000 -0.000000 -0.000000 0.000000 -0.000000 -0.000000 0.000000 0.000000 -0.000000 0.000000 -0.000000 -0.000000 0.000000 -0.000000 -0.000000 0.000000 -0.000000 -0.000000 0.000000 
1.240658 69.957069 -4.094294 -4.173900 -2.622821 -1.877450 -0.000000 -0.000000 0.000000 -8.297282 8.895599 4.682380 25.747506 7.077287 1.955396 -12.982429 6.556450 -4.600202 0.000000 -0.000000 0.000000 -0.000002 0.000000 -0.000000 -7.102035 -12.408169 -2.742670 22.130245 1.512575 -2.130107 -10.682200 -2.088512 3.737186 -0.000000 0.000002 0.000000 0.000001 0.000000 -0.000000 -0.190001 -0.392651 3.017032 3.401682 -0.090937 -1.032959 3.399563 -0.112316 -1.035040 14.030743 -0.717591 -0.209600 1.568582 -3.077530 1.266221 0.000001 -0.000000 0.000000 0.000001 -0.000000 0.000000 0.000001 -0.000000 0.000000 0.000001 -0.000000 0.000000 -0.000001 0.000000 -0.000000 0.000001 -0.000000 0.000000 -0.000001 0.000000 -0.000000 0.000001 -0.000000 0.000000 0.000001 -0.000000 0.000000 1.208271 -1.468087 -5.610107 16.581700 -58.881449 -53.734229 -0.000003 -5.109009 0.000006 -2.377488 -11.023767 -4.200271 10.772720 25.078740 -1.452156 1.207926 -0.209773 -1.050998 -0.000002 -0.000000 -0.000001 0.414876 3.135123 -8.999443 1.109306 3.752827 -32.924285 0.000000 0.000001 0.000002 0.522846 3.549277 -9.928737 0.540088 2.677787 -22.802283 0.000002 -0.000001 0.000002 0.679320 4.079964 -11.148918 0.107915 1.216825 -10.137314 -0.000000 0.000000 0.000001 1.663252 8.471586 -11.713995 -0.018123 -4.056653 -0.491008 -0.000002 0.000000 0.000001 -0.000000 0.000001 -0.000002 6.130076 15.208299 4.183894 19.381384 47.538277 37.861583 0.000235 84.921531 -0.000242 42.997697 -9.837386 -39.087264 1.547546 2.950331 5.545685 1.571719 0.187011 1.723093 -0.000001 -0.000001 0.000002 1.657080 4.789246 -28.929242 0.984705 -3.572154 30.813862 -0.000001 0.000000 0.000002 0.809114 4.230776 -13.165207 0.491011 -2.571052 21.620814 0.000001 -0.000002 -0.000005 -0.445848 3.284899 7.121503 0.096861 -1.158920 9.555021 0.000001 -0.000004 0.000000 -1.501001 2.107785 23.360507 0.000001 0.000003 0.000015 0.000000 0.000003 0.000001 0.000001 -0.000002 0.000000 -0.000000 -0.000000 0.000000 -0.000000 -0.000000 0.000000 -0.000000 -0.000000 -0.000000 -0.000000 -0.000000 -0.000000 -0.000000 -0.000000 0.000000 -0.000000 -0.000000 0.000000 -0.000000 -0.000000 -0.000000 -0.000000 -0.000000 -0.000000 -0.000000 -0.000000 0.000000 -0.000000 -0.000000 0.000000 -0.000000 -0.000000 0.000000 -0.000000 -0.000000 0.000000 -0.000000 -0.000000 0.000000 
1.173911 69.902222 -4.123054 -4.167073 -2.838634 -1.915877 0.000000 0.000000 0.000000 -8.570659 9.152992 4.933406 26.217075 6.942927 1.836180 -13.195627 6.601205 -4.600878 -0.000000 -0.000000 -0.000000 0.000000 -0.000000 -0.000000 -7.386776 -12.068432 -2.551899 22.625452 1.289259 -2.308364 -10.892016 -2.025715 3.790885 -0.000000 0.000000 -0.000000 -0.000000 0.000001 -0.000001 -0.227197 -0.095069 3.262649 3.470997 -0.040805 -1.090926 3.469654 -0.064606 -1.090796 13.710532 -0.841909 -0.419946 1.859195 -3.645467 1.691873 0.000000 0.000000 0.000000 0.000000 0.000000 0.000000 0.000000 0.000000 0.000000 0.000000 0.000000 0.000000 0.000000 -0.000001 0.000000 0.000000 0.000000 0.000000 0.000000 -0.000001 0.000000 0.000000 0.000000 0.000000 0.000000 0.000000 0.000000 1.226850 -1.575509 -5.664756 16.850360 -58.953029 -53.326039 -0.000008 -5.107764 -0.000003 -2.346914 -11.094768 -4.236964 10.858430 25.091748 -1.569828 1.207914 -0.209772 -1.050999 -0.000001 0.000001 -0.000000 0.413685 3.203261 -8.674218 1.226345 3.927253 -34.671393 0.000001 0.000002 -0.000002 0.510808 3.592493 -9.467768 0.597987 2.811394 -24.011646 -0.000001 0.000000 -0.000001 0.656115 4.119901 -10.527774 0.119571 1.280257 -10.672120 -0.000001 -0.000001 0.000001 1.576847 8.520300 -10.958244 -0.018097 -4.056673 -0.491046 -0.000003 -0.000001 0.000001 0.000001 -0.000000 -0.000003 6.899417 17.417426 4.201724 19.403478 48.596557 35.975129 -0.000928 85.476054 0.000977 42.128337 -11.535190 -42.579420 2.948583 1.039294 6.871134 1.571735 0.186972 1.723084 -0.000001 -0.000001 -0.000001 0.623146 2.893966 -26.676853 0.539518 -2.690081 22.677618 -0.000002 -0.000001 0.000004 0.404065 2.587185 -12.428992 0.257283 -1.877511 15.603898 0.000002 -0.000003 -0.000001 -0.246662 2.313722 5.521883 0.052002 -0.850488 6.996698 0.000002 0.000001 -0.000002 -1.091339 1.857915 19.879677 0.000001 -0.005838 0.047902 -0.000001 0.000002 0.000002 -0.000000 -0.000002 0.000002 -0.000000 0.000000 -0.000000 -0.000000 0.000000 0.000000 -0.000000 0.000000 -0.000000 -0.000000 0.000000 -0.000000 -0.000000 0.000000 -0.000000 -0.000000 0.000000 -0.000000 -0.000000 0.000000 -0.000000 -0.000000 0.000000 -0.000000 -0.000000 0.000000 -0.000000 -0.000000 0.000000 -0.000000 0.000000 0.000000 0.000000 0.000000 0.000000 0.000000 0.000000 0.000000 0.000000 
